<svg width="56" height="56" viewBox="0 0 56 56" fill="none" xmlns="http://www.w3.org/2000/svg">
<circle cx="28" cy="28" r="28" fill="url(#paint0_linear_328_1490)"/>
<g clip-path="url(#clip0_328_1490)">
<path fill-rule="evenodd" clip-rule="evenodd" d="M33.4483 29.3183C35.0466 30.4033 36.1666 31.8733 36.1666 33.8333V37.3333H39.6666C40.3083 37.3333 40.8333 36.8083 40.8333 36.1666V33.8333C40.8333 31.29 36.6683 29.785 33.4483 29.3183Z" fill="white"/>
<path d="M24.5 28C27.0774 28 29.1667 25.9106 29.1667 23.3333C29.1667 20.756 27.0774 18.6666 24.5 18.6666C21.9227 18.6666 19.8334 20.756 19.8334 23.3333C19.8334 25.9106 21.9227 28 24.5 28Z" fill="white"/>
<path fill-rule="evenodd" clip-rule="evenodd" d="M31.4999 28C34.0782 28 36.1666 25.9116 36.1666 23.3333C36.1666 20.755 34.0782 18.6666 31.4999 18.6666C30.9516 18.6666 30.4382 18.7833 29.9482 18.9466C30.9166 20.1483 31.4999 21.6766 31.4999 23.3333C31.4999 24.99 30.9166 26.5183 29.9482 27.72C30.4382 27.8833 30.9516 28 31.4999 28Z" fill="white"/>
<path fill-rule="evenodd" clip-rule="evenodd" d="M24.5 29.1666C21.385 29.1666 15.1666 30.73 15.1666 33.8333V36.1666C15.1666 36.8083 15.6916 37.3333 16.3333 37.3333H32.6666C33.3083 37.3333 33.8333 36.8083 33.8333 36.1666V33.8333C33.8333 30.73 27.615 29.1666 24.5 29.1666Z" fill="white"/>
</g>
<defs>
<linearGradient id="paint0_linear_328_1490" x1="0" y1="0" x2="56" y2="56" gradientUnits="userSpaceOnUse">
<stop stop-color="#868CFF"/>
<stop offset="1" stop-color="#4318FF"/>
</linearGradient>
<clipPath id="clip0_328_1490">
<rect width="28" height="28" fill="white" transform="translate(14 14)"/>
</clipPath>
</defs>
</svg>
