<svg width="119" height="45" viewBox="0 0 119 45" fill="none" xmlns="http://www.w3.org/2000/svg">
<path d="M6.34772 33.0615C7.35 33.0615 8.22587 33.2557 8.97532 33.6439C9.73381 34.0232 10.3162 34.574 10.7225 35.2963C11.1379 36.0097 11.3456 36.8449 11.3456 37.8021C11.3456 38.7592 11.1379 39.5899 10.7225 40.2942C10.3162 40.9985 9.73381 41.5403 8.97532 41.9195C8.22587 42.2897 7.35 42.4749 6.34772 42.4749H3.27315V33.0615H6.34772ZM6.34772 41.2152C7.44933 41.2152 8.29359 40.9173 8.88051 40.3213C9.46743 39.7254 9.7609 38.8856 9.7609 37.8021C9.7609 36.7095 9.46743 35.8562 8.88051 35.2422C8.29359 34.6282 7.44933 34.3212 6.34772 34.3212H4.81721V41.2152H6.34772ZM18.551 40.5516H14.6096L13.9323 42.4749H12.3206L15.6931 33.048H17.481L20.8535 42.4749H19.2282L18.551 40.5516ZM18.1175 39.2919L16.587 34.9171L15.043 39.2919H18.1175ZM25.4216 42.5697C24.7895 42.5697 24.2206 42.4613 23.715 42.2446C23.2093 42.0189 22.812 41.7028 22.5231 41.2965C22.2341 40.8902 22.0896 40.4161 22.0896 39.8743H23.7421C23.7782 40.2807 23.9362 40.6148 24.2161 40.8766C24.5051 41.1385 24.9069 41.2694 25.4216 41.2694C25.9543 41.2694 26.3697 41.143 26.6676 40.8902C26.9656 40.6283 27.1146 40.2942 27.1146 39.8879C27.1146 39.5718 27.0198 39.3145 26.8302 39.1159C26.6496 38.9172 26.4193 38.7637 26.1394 38.6553C25.8685 38.547 25.4893 38.4296 25.0017 38.3032C24.3877 38.1407 23.8865 37.9781 23.4983 37.8156C23.119 37.644 22.7939 37.3822 22.5231 37.03C22.2522 36.6779 22.1167 36.2083 22.1167 35.6214C22.1167 35.0796 22.2522 34.6056 22.5231 34.1993C22.7939 33.7929 23.1732 33.4814 23.6608 33.2647C24.1484 33.048 24.7127 32.9396 25.3538 32.9396C26.2658 32.9396 27.0108 33.1699 27.5886 33.6304C28.1756 34.0819 28.5006 34.7049 28.5638 35.4995H26.8573C26.8302 35.1564 26.6676 34.8629 26.3697 34.6191C26.0717 34.3753 25.6789 34.2534 25.1913 34.2534C24.7488 34.2534 24.3877 34.3663 24.1078 34.592C23.8278 34.8178 23.6879 35.1428 23.6879 35.5672C23.6879 35.8562 23.7737 36.0955 23.9452 36.2851C24.1258 36.4657 24.3515 36.6101 24.6224 36.7185C24.8933 36.8269 25.2635 36.9442 25.7331 37.0707C26.3561 37.2422 26.8618 37.4138 27.25 37.5853C27.6473 37.7569 27.9814 38.0233 28.2523 38.3845C28.5322 38.7366 28.6722 39.2107 28.6722 39.8066C28.6722 40.2852 28.5413 40.7367 28.2794 41.1611C28.0266 41.5854 27.6519 41.9286 27.1552 42.1904C26.6676 42.4433 26.0897 42.5697 25.4216 42.5697ZM38.0112 33.0615V42.4749H36.4672V38.3574H32.0382V42.4749H30.4941V33.0615H32.0382V37.0977H36.4672V33.0615H38.0112ZM45.0824 37.6395C45.5881 37.7298 46.017 37.9962 46.3692 38.4386C46.7213 38.8811 46.8974 39.3822 46.8974 39.9421C46.8974 40.4206 46.771 40.854 46.5181 41.2423C46.2744 41.6216 45.9177 41.924 45.4481 42.1498C44.9786 42.3665 44.4323 42.4749 43.8093 42.4749H40.0439V33.0615H43.6332C44.2743 33.0615 44.8251 33.1699 45.2856 33.3866C45.7461 33.6033 46.0938 33.8968 46.3285 34.267C46.5633 34.6282 46.6807 35.0345 46.6807 35.486C46.6807 36.0277 46.5362 36.4792 46.2473 36.8404C45.9583 37.2016 45.57 37.468 45.0824 37.6395ZM41.588 37.0165H43.4978C44.0034 37.0165 44.3962 36.9036 44.6761 36.6779C44.9651 36.4431 45.1095 36.109 45.1095 35.6756C45.1095 35.2512 44.9651 34.9216 44.6761 34.6869C44.3962 34.4431 44.0034 34.3212 43.4978 34.3212H41.588V37.0165ZM43.6738 41.2152C44.1975 41.2152 44.6084 41.0888 44.9064 40.836C45.2043 40.5832 45.3533 40.231 45.3533 39.7795C45.3533 39.319 45.1953 38.9533 44.8793 38.6824C44.5632 38.4115 44.1434 38.2761 43.6197 38.2761H41.588V41.2152H43.6738ZM52.8689 42.5697C51.993 42.5697 51.1848 42.3665 50.4444 41.9602C49.713 41.5448 49.1306 40.9714 48.6972 40.24C48.2728 39.4996 48.0606 38.6689 48.0606 37.7479C48.0606 36.8269 48.2728 36.0007 48.6972 35.2693C49.1306 34.5379 49.713 33.969 50.4444 33.5627C51.1848 33.1473 51.993 32.9396 52.8689 32.9396C53.7538 32.9396 54.5619 33.1473 55.2933 33.5627C56.0337 33.969 56.6161 34.5379 57.0405 35.2693C57.4649 36.0007 57.6771 36.8269 57.6771 37.7479C57.6771 38.6689 57.4649 39.4996 57.0405 40.24C56.6161 40.9714 56.0337 41.5448 55.2933 41.9602C54.5619 42.3665 53.7538 42.5697 52.8689 42.5697ZM52.8689 41.2288C53.4919 41.2288 54.0472 41.0888 54.5348 40.8089C55.0224 40.52 55.4017 40.1136 55.6725 39.5899C55.9525 39.0572 56.0924 38.4432 56.0924 37.7479C56.0924 37.0526 55.9525 36.4431 55.6725 35.9194C55.4017 35.3957 55.0224 34.9939 54.5348 34.7139C54.0472 34.434 53.4919 34.2941 52.8689 34.2941C52.2458 34.2941 51.6905 34.434 51.2029 34.7139C50.7153 34.9939 50.3316 35.3957 50.0516 35.9194C49.7807 36.4431 49.6453 37.0526 49.6453 37.7479C49.6453 38.4432 49.7807 39.0572 50.0516 39.5899C50.3316 40.1136 50.7153 40.52 51.2029 40.8089C51.6905 41.0888 52.2458 41.2288 52.8689 41.2288ZM64.8716 40.5516H60.9302L60.253 42.4749H58.6412L62.0137 33.048H63.8016L67.1741 42.4749H65.5488L64.8716 40.5516ZM64.4382 39.2919L62.9077 34.9171L61.3636 39.2919H64.4382ZM73.53 42.4749L71.3629 38.7095H70.1846V42.4749H68.6405V33.0615H71.8912C72.6135 33.0615 73.223 33.1879 73.7197 33.4408C74.2253 33.6936 74.6 34.0322 74.8438 34.4566C75.0967 34.881 75.2231 35.355 75.2231 35.8788C75.2231 36.4928 75.0425 37.0526 74.6813 37.5583C74.3291 38.0549 73.7829 38.3935 73.0424 38.5741L75.3721 42.4749H73.53ZM70.1846 37.477H71.8912C72.4691 37.477 72.9025 37.3325 73.1914 37.0436C73.4894 36.7546 73.6384 36.3664 73.6384 35.8788C73.6384 35.3912 73.4939 35.0119 73.205 34.741C72.916 34.4611 72.4781 34.3212 71.8912 34.3212H70.1846V37.477ZM80.2729 33.0615C81.2752 33.0615 82.151 33.2557 82.9005 33.6439C83.659 34.0232 84.2414 34.574 84.6477 35.2963C85.0631 36.0097 85.2708 36.8449 85.2708 37.8021C85.2708 38.7592 85.0631 39.5899 84.6477 40.2942C84.2414 40.9985 83.659 41.5403 82.9005 41.9195C82.151 42.2897 81.2752 42.4749 80.2729 42.4749H77.1983V33.0615H80.2729ZM80.2729 41.2152C81.3745 41.2152 82.2188 40.9173 82.8057 40.3213C83.3926 39.7254 83.6861 38.8856 83.6861 37.8021C83.6861 36.7095 83.3926 35.8562 82.8057 35.2422C82.2188 34.6282 81.3745 34.3212 80.2729 34.3212H78.7424V41.2152H80.2729Z" fill="#4318FF"/>
<path d="M17.3729 16.5777C17.3729 17.0276 17.3435 17.4776 17.2848 17.9276H6.39745C6.45614 18.8275 6.70069 19.5025 7.1311 19.9525C7.58107 20.3829 8.14843 20.5981 8.83317 20.5981C9.79181 20.5981 10.4766 20.1677 10.8874 19.3069H17.0207C16.7664 20.4416 16.2675 21.4589 15.5241 22.3589C14.8002 23.2392 13.8807 23.9338 12.7656 24.4424C11.6504 24.9511 10.4179 25.2054 9.06794 25.2054C7.44413 25.2054 5.99639 24.8631 4.72472 24.1783C3.47262 23.4936 2.48464 22.5154 1.76077 21.2437C1.05646 19.972 0.704306 18.4754 0.704306 16.7537C0.704306 15.0321 1.05646 13.5452 1.76077 12.2931C2.46507 11.0215 3.44327 10.0433 4.69538 9.35853C5.96704 8.67379 7.42456 8.33142 9.06794 8.33142C10.6918 8.33142 12.1297 8.66401 13.3818 9.32919C14.6339 9.99436 15.6121 10.953 16.3164 12.2051C17.0207 13.4376 17.3729 14.8952 17.3729 16.5777ZM11.5037 15.1397C11.5037 14.4354 11.2689 13.8876 10.7994 13.4963C10.3298 13.0855 9.7429 12.8801 9.0386 12.8801C8.33429 12.8801 7.75715 13.0757 7.30718 13.467C6.8572 13.8387 6.56374 14.3963 6.42679 15.1397H11.5037ZM18.7877 16.7537C18.7877 15.0517 19.0909 13.5648 19.6974 12.2931C20.3235 11.0215 21.1647 10.0433 22.2212 9.35853C23.2972 8.67379 24.4906 8.33142 25.8014 8.33142C26.9361 8.33142 27.9143 8.55641 28.736 9.00638C29.5577 9.45635 30.1935 10.0628 30.6435 10.8258V8.53684H36.3953V25H30.6435V22.711C30.1935 23.474 29.5479 24.0805 28.7067 24.5305C27.885 24.9804 26.9166 25.2054 25.8014 25.2054C24.4906 25.2054 23.2972 24.8631 22.2212 24.1783C21.1647 23.4936 20.3235 22.5154 19.6974 21.2437C19.0909 19.9525 18.7877 18.4558 18.7877 16.7537ZM30.6435 16.7537C30.6435 15.6973 30.3501 14.8658 29.7631 14.2593C29.1958 13.6528 28.4915 13.3496 27.6502 13.3496C26.7894 13.3496 26.0753 13.6528 25.5079 14.2593C24.9406 14.8463 24.6569 15.6777 24.6569 16.7537C24.6569 17.8102 24.9406 18.6515 25.5079 19.2775C26.0753 19.884 26.7894 20.1872 27.6502 20.1872C28.4915 20.1872 29.1958 19.884 29.7631 19.2775C30.3501 18.671 30.6435 17.8298 30.6435 16.7537ZM46.6867 25.2054C45.1998 25.2054 43.8694 24.9609 42.6956 24.4718C41.5413 23.9631 40.6218 23.2784 39.9371 22.4175C39.2719 21.5372 38.9002 20.5492 38.8219 19.4536H44.3977C44.4759 19.9818 44.7205 20.3927 45.1313 20.6861C45.5422 20.9796 46.0508 21.1263 46.6573 21.1263C47.1268 21.1263 47.4986 21.0285 47.7725 20.8329C48.0464 20.6372 48.1833 20.3829 48.1833 20.0699C48.1833 19.659 47.9583 19.3558 47.5083 19.1601C47.0584 18.9645 46.3149 18.7493 45.278 18.5145C44.1042 18.2797 43.126 18.0156 42.3434 17.7222C41.5609 17.4287 40.8761 16.9494 40.2892 16.2842C39.7218 15.619 39.4382 14.7191 39.4382 13.5844C39.4382 12.6062 39.7023 11.7258 40.2305 10.9432C40.7587 10.1411 41.5315 9.50526 42.5489 9.03572C43.5858 8.56619 44.8281 8.33142 46.2758 8.33142C48.4279 8.33142 50.1201 8.85965 51.3527 9.91611C52.5852 10.9726 53.2993 12.3616 53.4949 14.0833H48.3007C48.2029 13.555 47.9681 13.154 47.5964 12.8801C47.2442 12.5866 46.7649 12.4399 46.1584 12.4399C45.6889 12.4399 45.327 12.5279 45.0726 12.704C44.8379 12.8801 44.7205 13.1246 44.7205 13.4376C44.7205 13.8289 44.9455 14.1322 45.3954 14.3474C45.8454 14.543 46.5693 14.7484 47.567 14.9636C48.7604 15.218 49.7484 15.5016 50.531 15.8147C51.3331 16.1277 52.0276 16.6364 52.6146 17.3407C53.2211 18.0254 53.5243 18.9645 53.5243 20.1579C53.5243 21.1165 53.2406 21.9774 52.6733 22.7404C52.1255 23.5033 51.3331 24.1098 50.2962 24.5598C49.2789 24.9902 48.0757 25.2054 46.6867 25.2054ZM74.0771 8.53684L63.6299 32.8354H57.3792L61.3116 24.2957L54.562 8.53684H60.9594L64.4222 17.8689L67.7677 8.53684H74.0771Z" fill="#4318FF"/>
<path d="M78.2523 6.92281C77.3719 6.92281 76.648 6.66847 76.0807 6.15981C75.5329 5.63158 75.259 4.98596 75.259 4.22297C75.259 3.4404 75.5329 2.79479 76.0807 2.28612C76.648 1.75789 77.3719 1.49378 78.2523 1.49378C79.1131 1.49378 79.8174 1.75789 80.3652 2.28612C80.9326 2.79479 81.2162 3.4404 81.2162 4.22297C81.2162 4.98596 80.9326 5.63158 80.3652 6.15981C79.8174 6.66847 79.1131 6.92281 78.2523 6.92281ZM80.776 27.1129C80.776 29.128 80.2674 30.5758 79.25 31.4561C78.2327 32.3561 76.8143 32.8061 74.9949 32.8061H73.0287V28.5509H74.2319C74.7797 28.5509 75.1709 28.4433 75.4057 28.2281C75.6405 28.0129 75.7579 27.6607 75.7579 27.1716V8.62488H80.776V27.1129ZM100.554 8.62488V25H95.5355V22.7697C95.0269 23.4936 94.3323 24.0805 93.4519 24.5305C92.5911 24.9609 91.6325 25.1761 90.576 25.1761C89.3239 25.1761 88.2186 24.9022 87.2599 24.3544C86.3013 23.787 85.5578 22.9751 85.0296 21.9187C84.5014 20.8622 84.2373 19.6199 84.2373 18.1917V8.62488H89.2261V17.5167C89.2261 18.6123 89.5098 19.4634 90.0771 20.0699C90.6445 20.6763 91.4075 20.9796 92.3661 20.9796C93.3443 20.9796 94.1171 20.6763 94.6845 20.0699C95.2518 19.4634 95.5355 18.6123 95.5355 17.5167V8.62488H100.554ZM110.82 25.2348C109.392 25.2348 108.12 24.9902 107.005 24.5011C105.89 24.012 105.009 23.3468 104.364 22.5056C103.718 21.6448 103.356 20.6861 103.278 19.6297H108.237C108.296 20.197 108.56 20.6568 109.03 21.0089C109.499 21.3611 110.076 21.5372 110.761 21.5372C111.387 21.5372 111.866 21.4198 112.199 21.185C112.551 20.9307 112.727 20.6079 112.727 20.2166C112.727 19.747 112.483 19.4047 111.994 19.1895C111.505 18.9547 110.712 18.7004 109.617 18.4265C108.443 18.1526 107.465 17.8689 106.682 17.5754C105.899 17.2624 105.224 16.7831 104.657 16.1375C104.09 15.4723 103.806 14.5821 103.806 13.467C103.806 12.5279 104.06 11.6769 104.569 10.9139C105.097 10.1313 105.86 9.51504 106.858 9.06507C107.875 8.6151 109.079 8.39011 110.468 8.39011C112.522 8.39011 114.136 8.89878 115.31 9.91611C116.503 10.9334 117.188 12.2834 117.364 13.9659H112.727C112.649 13.3985 112.395 12.9485 111.964 12.6159C111.553 12.2834 111.006 12.1171 110.321 12.1171C109.734 12.1171 109.284 12.2344 108.971 12.4692C108.658 12.6844 108.501 12.9877 108.501 13.3789C108.501 13.8485 108.746 14.2006 109.235 14.4354C109.744 14.6702 110.526 14.9049 111.583 15.1397C112.796 15.4527 113.784 15.7658 114.547 16.0788C115.31 16.3722 115.975 16.8614 116.542 17.5461C117.129 18.2113 117.432 19.1112 117.452 20.2459C117.452 21.2046 117.178 22.0654 116.63 22.8284C116.102 23.5718 115.329 24.1587 114.312 24.5892C113.314 25.0196 112.15 25.2348 110.82 25.2348Z" fill="#7875FF"/>
</svg>
