<svg width="162" height="44" viewBox="0 0 162 44" fill="none" xmlns="http://www.w3.org/2000/svg">
<path d="M61.624 31.66C62.512 31.66 63.288 31.832 63.952 32.176C64.624 32.512 65.14 33 65.5 33.64C65.868 34.272 66.052 35.012 66.052 35.86C66.052 36.708 65.868 37.444 65.5 38.068C65.14 38.692 64.624 39.172 63.952 39.508C63.288 39.836 62.512 40 61.624 40H58.9V31.66H61.624ZM61.624 38.884C62.6 38.884 63.348 38.62 63.868 38.092C64.388 37.564 64.648 36.82 64.648 35.86C64.648 34.892 64.388 34.136 63.868 33.592C63.348 33.048 62.6 32.776 61.624 32.776H60.268V38.884H61.624ZM72.4358 38.296H68.9438L68.3438 40H66.9158L69.9038 31.648H71.4878L74.4758 40H73.0358L72.4358 38.296ZM72.0518 37.18L70.6958 33.304L69.3278 37.18H72.0518ZM78.523 40.084C77.963 40.084 77.459 39.988 77.011 39.796C76.563 39.596 76.211 39.316 75.955 38.956C75.699 38.596 75.571 38.176 75.571 37.696H77.035C77.067 38.056 77.207 38.352 77.455 38.584C77.711 38.816 78.067 38.932 78.523 38.932C78.995 38.932 79.363 38.82 79.627 38.596C79.891 38.364 80.023 38.068 80.023 37.708C80.023 37.428 79.939 37.2 79.771 37.024C79.611 36.848 79.407 36.712 79.159 36.616C78.919 36.52 78.583 36.416 78.151 36.304C77.607 36.16 77.163 36.016 76.819 35.872C76.483 35.72 76.195 35.488 75.955 35.176C75.715 34.864 75.595 34.448 75.595 33.928C75.595 33.448 75.715 33.028 75.955 32.668C76.195 32.308 76.531 32.032 76.963 31.84C77.395 31.648 77.895 31.552 78.463 31.552C79.271 31.552 79.931 31.756 80.443 32.164C80.963 32.564 81.251 33.116 81.307 33.82H79.795C79.771 33.516 79.627 33.256 79.363 33.04C79.099 32.824 78.751 32.716 78.319 32.716C77.927 32.716 77.607 32.816 77.359 33.016C77.111 33.216 76.987 33.504 76.987 33.88C76.987 34.136 77.063 34.348 77.215 34.516C77.375 34.676 77.575 34.804 77.815 34.9C78.055 34.996 78.383 35.1 78.799 35.212C79.351 35.364 79.799 35.516 80.143 35.668C80.495 35.82 80.791 36.056 81.031 36.376C81.279 36.688 81.403 37.108 81.403 37.636C81.403 38.06 81.287 38.46 81.055 38.836C80.831 39.212 80.499 39.516 80.059 39.748C79.627 39.972 79.115 40.084 78.523 40.084ZM89.6772 31.66V40H88.3092V36.352H84.3852V40H83.0172V31.66H84.3852V35.236H88.3092V31.66H89.6772ZM95.9421 35.716C96.3901 35.796 96.7701 36.032 97.0821 36.424C97.3941 36.816 97.5501 37.26 97.5501 37.756C97.5501 38.18 97.4381 38.564 97.2141 38.908C96.9981 39.244 96.6821 39.512 96.2661 39.712C95.8501 39.904 95.3661 40 94.8141 40H91.4781V31.66H94.6581C95.2261 31.66 95.7141 31.756 96.1221 31.948C96.5301 32.14 96.8381 32.4 97.0461 32.728C97.2541 33.048 97.3581 33.408 97.3581 33.808C97.3581 34.288 97.2301 34.688 96.9741 35.008C96.7181 35.328 96.3741 35.564 95.9421 35.716ZM92.8461 35.164H94.5381C94.9861 35.164 95.3341 35.064 95.5821 34.864C95.8381 34.656 95.9661 34.36 95.9661 33.976C95.9661 33.6 95.8381 33.308 95.5821 33.1C95.3341 32.884 94.9861 32.776 94.5381 32.776H92.8461V35.164ZM94.6941 38.884C95.1581 38.884 95.5221 38.772 95.7861 38.548C96.0501 38.324 96.1821 38.012 96.1821 37.612C96.1821 37.204 96.0421 36.88 95.7621 36.64C95.4821 36.4 95.1101 36.28 94.6461 36.28H92.8461V38.884H94.6941ZM102.841 40.084C102.065 40.084 101.349 39.904 100.693 39.544C100.045 39.176 99.5287 38.668 99.1447 38.02C98.7687 37.364 98.5807 36.628 98.5807 35.812C98.5807 34.996 98.7687 34.264 99.1447 33.616C99.5287 32.968 100.045 32.464 100.693 32.104C101.349 31.736 102.065 31.552 102.841 31.552C103.625 31.552 104.341 31.736 104.989 32.104C105.645 32.464 106.161 32.968 106.537 33.616C106.913 34.264 107.101 34.996 107.101 35.812C107.101 36.628 106.913 37.364 106.537 38.02C106.161 38.668 105.645 39.176 104.989 39.544C104.341 39.904 103.625 40.084 102.841 40.084ZM102.841 38.896C103.393 38.896 103.885 38.772 104.317 38.524C104.749 38.268 105.085 37.908 105.325 37.444C105.573 36.972 105.697 36.428 105.697 35.812C105.697 35.196 105.573 34.656 105.325 34.192C105.085 33.728 104.749 33.372 104.317 33.124C103.885 32.876 103.393 32.752 102.841 32.752C102.289 32.752 101.797 32.876 101.365 33.124C100.933 33.372 100.593 33.728 100.345 34.192C100.105 34.656 99.9847 35.196 99.9847 35.812C99.9847 36.428 100.105 36.972 100.345 37.444C100.593 37.908 100.933 38.268 101.365 38.524C101.797 38.772 102.289 38.896 102.841 38.896ZM113.475 38.296H109.983L109.383 40H107.955L110.943 31.648H112.527L115.515 40H114.075L113.475 38.296ZM113.091 37.18L111.735 33.304L110.367 37.18H113.091ZM121.146 40L119.226 36.664H118.182V40H116.814V31.66H119.694C120.334 31.66 120.874 31.772 121.314 31.996C121.762 32.22 122.094 32.52 122.31 32.896C122.534 33.272 122.646 33.692 122.646 34.156C122.646 34.7 122.486 35.196 122.166 35.644C121.854 36.084 121.37 36.384 120.714 36.544L122.778 40H121.146ZM118.182 35.572H119.694C120.206 35.572 120.59 35.444 120.846 35.188C121.11 34.932 121.242 34.588 121.242 34.156C121.242 33.724 121.114 33.388 120.858 33.148C120.602 32.9 120.214 32.776 119.694 32.776H118.182V35.572ZM127.12 31.66C128.008 31.66 128.784 31.832 129.448 32.176C130.12 32.512 130.636 33 130.996 33.64C131.364 34.272 131.548 35.012 131.548 35.86C131.548 36.708 131.364 37.444 130.996 38.068C130.636 38.692 130.12 39.172 129.448 39.508C128.784 39.836 128.008 40 127.12 40H124.396V31.66H127.12ZM127.12 38.884C128.096 38.884 128.844 38.62 129.364 38.092C129.884 37.564 130.144 36.82 130.144 35.86C130.144 34.892 129.884 34.136 129.364 33.592C128.844 33.048 128.096 32.776 127.12 32.776H125.764V38.884H127.12Z" fill="#4318FF"/>
<path d="M71.392 17.538C71.392 17.9367 71.366 18.3353 71.314 18.734H61.668C61.72 19.5313 61.9367 20.1293 62.318 20.528C62.7167 20.9093 63.2193 21.1 63.826 21.1C64.6753 21.1 65.282 20.7187 65.646 19.956H71.08C70.8547 20.9613 70.4127 21.8627 69.754 22.66C69.1127 23.44 68.298 24.0553 67.31 24.506C66.322 24.9567 65.23 25.182 64.034 25.182C62.5953 25.182 61.3127 24.8787 60.186 24.272C59.0767 23.6653 58.2013 22.7987 57.56 21.672C56.936 20.5453 56.624 19.2193 56.624 17.694C56.624 16.1687 56.936 14.8513 57.56 13.742C58.184 12.6153 59.0507 11.7487 60.16 11.142C61.2867 10.5353 62.578 10.232 64.034 10.232C65.4727 10.232 66.7467 10.5267 67.856 11.116C68.9653 11.7053 69.832 12.5547 70.456 13.664C71.08 14.756 71.392 16.0473 71.392 17.538ZM66.192 16.264C66.192 15.64 65.984 15.1547 65.568 14.808C65.152 14.444 64.632 14.262 64.008 14.262C63.384 14.262 62.8727 14.4353 62.474 14.782C62.0753 15.1113 61.8153 15.6053 61.694 16.264H66.192ZM72.6455 17.694C72.6455 16.186 72.9142 14.8687 73.4515 13.742C74.0062 12.6153 74.7515 11.7487 75.6875 11.142C76.6408 10.5353 77.6982 10.232 78.8595 10.232C79.8648 10.232 80.7315 10.4313 81.4595 10.83C82.1875 11.2287 82.7508 11.766 83.1495 12.442V10.414H88.2455V25H83.1495V22.972C82.7508 23.648 82.1788 24.1853 81.4335 24.584C80.7055 24.9827 79.8475 25.182 78.8595 25.182C77.6982 25.182 76.6408 24.8787 75.6875 24.272C74.7515 23.6653 74.0062 22.7987 73.4515 21.672C72.9142 20.528 72.6455 19.202 72.6455 17.694ZM83.1495 17.694C83.1495 16.758 82.8895 16.0213 82.3695 15.484C81.8668 14.9467 81.2428 14.678 80.4975 14.678C79.7348 14.678 79.1022 14.9467 78.5995 15.484C78.0968 16.004 77.8455 16.7407 77.8455 17.694C77.8455 18.63 78.0968 19.3753 78.5995 19.93C79.1022 20.4673 79.7348 20.736 80.4975 20.736C81.2428 20.736 81.8668 20.4673 82.3695 19.93C82.8895 19.3927 83.1495 18.6473 83.1495 17.694ZM97.3634 25.182C96.046 25.182 94.8674 24.9653 93.8274 24.532C92.8047 24.0813 91.99 23.4747 91.3834 22.712C90.794 21.932 90.4647 21.0567 90.3954 20.086H95.3354C95.4047 20.554 95.6214 20.918 95.9854 21.178C96.3494 21.438 96.8 21.568 97.3374 21.568C97.7534 21.568 98.0827 21.4813 98.3254 21.308C98.568 21.1347 98.6894 20.9093 98.6894 20.632C98.6894 20.268 98.49 19.9993 98.0914 19.826C97.6927 19.6527 97.034 19.462 96.1154 19.254C95.0754 19.046 94.2087 18.812 93.5154 18.552C92.822 18.292 92.2154 17.8673 91.6954 17.278C91.1927 16.6887 90.9414 15.8913 90.9414 14.886C90.9414 14.0193 91.1754 13.2393 91.6434 12.546C92.1114 11.8353 92.796 11.272 93.6974 10.856C94.616 10.44 95.7167 10.232 96.9994 10.232C98.906 10.232 100.405 10.7 101.497 11.636C102.589 12.572 103.222 13.8027 103.395 15.328H98.7934C98.7067 14.86 98.4987 14.5047 98.1694 14.262C97.8574 14.002 97.4327 13.872 96.8954 13.872C96.4794 13.872 96.1587 13.95 95.9334 14.106C95.7254 14.262 95.6214 14.4787 95.6214 14.756C95.6214 15.1027 95.8207 15.3713 96.2194 15.562C96.618 15.7353 97.2594 15.9173 98.1434 16.108C99.2007 16.3333 100.076 16.5847 100.769 16.862C101.48 17.1393 102.095 17.59 102.615 18.214C103.153 18.8207 103.421 19.6527 103.421 20.71C103.421 21.5593 103.17 22.322 102.667 22.998C102.182 23.674 101.48 24.2113 100.561 24.61C99.66 24.9913 98.594 25.182 97.3634 25.182ZM121.631 10.414L112.375 31.942H106.837L110.321 24.376L104.341 10.414H110.009L113.077 18.682L116.041 10.414H121.631Z" fill="#4318FF"/>
<path d="M125.33 8.984C124.55 8.984 123.908 8.75867 123.406 8.308C122.92 7.84 122.678 7.268 122.678 6.592C122.678 5.89867 122.92 5.32667 123.406 4.876C123.908 4.408 124.55 4.174 125.33 4.174C126.092 4.174 126.716 4.408 127.202 4.876C127.704 5.32667 127.956 5.89867 127.956 6.592C127.956 7.268 127.704 7.84 127.202 8.308C126.716 8.75867 126.092 8.984 125.33 8.984ZM127.566 26.872C127.566 28.6573 127.115 29.94 126.214 30.72C125.312 31.5173 124.056 31.916 122.444 31.916H120.702V28.146H121.768C122.253 28.146 122.6 28.0507 122.808 27.86C123.016 27.6693 123.12 27.3573 123.12 26.924V10.492H127.566V26.872ZM145.088 10.492V25H140.642V23.024C140.192 23.6653 139.576 24.1853 138.796 24.584C138.034 24.9653 137.184 25.156 136.248 25.156C135.139 25.156 134.16 24.9133 133.31 24.428C132.461 23.9253 131.802 23.206 131.334 22.27C130.866 21.334 130.632 20.2333 130.632 18.968V10.492H135.052V18.37C135.052 19.3407 135.304 20.0947 135.806 20.632C136.309 21.1693 136.985 21.438 137.834 21.438C138.701 21.438 139.386 21.1693 139.888 20.632C140.391 20.0947 140.642 19.3407 140.642 18.37V10.492H145.088ZM154.184 25.208C152.919 25.208 151.792 24.9913 150.804 24.558C149.816 24.1247 149.036 23.5353 148.464 22.79C147.892 22.0273 147.571 21.178 147.502 20.242H151.896C151.948 20.7447 152.182 21.152 152.598 21.464C153.014 21.776 153.525 21.932 154.132 21.932C154.687 21.932 155.111 21.828 155.406 21.62C155.718 21.3947 155.874 21.1087 155.874 20.762C155.874 20.346 155.657 20.0427 155.224 19.852C154.791 19.644 154.089 19.4187 153.118 19.176C152.078 18.9333 151.211 18.682 150.518 18.422C149.825 18.1447 149.227 17.72 148.724 17.148C148.221 16.5587 147.97 15.77 147.97 14.782C147.97 13.95 148.195 13.196 148.646 12.52C149.114 11.8267 149.79 11.2807 150.674 10.882C151.575 10.4833 152.641 10.284 153.872 10.284C155.692 10.284 157.122 10.7347 158.162 11.636C159.219 12.5373 159.826 13.7333 159.982 15.224H155.874C155.805 14.7213 155.579 14.3227 155.198 14.028C154.834 13.7333 154.349 13.586 153.742 13.586C153.222 13.586 152.823 13.69 152.546 13.898C152.269 14.0887 152.13 14.3573 152.13 14.704C152.13 15.12 152.347 15.432 152.78 15.64C153.231 15.848 153.924 16.056 154.86 16.264C155.935 16.5413 156.81 16.8187 157.486 17.096C158.162 17.356 158.751 17.7893 159.254 18.396C159.774 18.9853 160.043 19.7827 160.06 20.788C160.06 21.6373 159.817 22.4 159.332 23.076C158.864 23.7347 158.179 24.2547 157.278 24.636C156.394 25.0173 155.363 25.208 154.184 25.208Z" fill="#7875FF"/>
<rect width="44" height="44" rx="10" fill="#4318FF"/>
<path d="M22.0005 7.69995C16.2805 7.69995 11.1431 11.0896 8.86565 16.3329C8.75973 16.5977 8.86565 16.9155 9.13047 17.0214C9.39528 17.1274 9.71306 17.0214 9.81899 16.7566C10.9842 14.1085 12.9438 11.937 15.3271 10.56C14.5857 11.3014 13.9501 12.2018 13.4734 13.1551C13.2616 13.5788 13.3145 14.1085 13.6323 14.4262C14.109 14.9559 15.0094 14.6911 15.2742 14.4262C15.486 14.2144 15.4331 13.9496 15.2742 13.6848C15.0094 13.2611 14.4268 13.6848 14.4268 13.6848C14.4268 13.6848 15.3801 10.8777 19.0345 9.07699C19.6701 8.9181 20.2527 8.86514 20.8882 8.81217C20.3586 9.3418 19.776 9.81847 19.0875 10.2422C19.0875 10.2422 16.6512 11.7251 16.2805 12.0429C16.0686 12.2548 16.0686 12.5196 16.2275 12.7844C16.4923 13.1551 16.8631 12.9433 16.969 12.8374C17.3397 12.5725 19.6701 11.1425 19.6701 11.1425C21.0471 10.56 22.4771 8.81217 22.4771 8.81217C24.8605 8.9181 27.0849 9.60662 28.9916 10.8248L27.6675 12.1488C26.8731 12.9433 26.1845 13.4729 25.496 13.8437C23.7482 14.85 22.3712 16.3329 21.4708 18.1337C21.259 18.5574 21.3119 19.087 21.6297 19.4048C22.1594 19.8814 23.0068 19.6696 23.2716 19.4048L24.1719 18.5044C24.3838 18.2925 24.3838 17.9748 24.1719 17.7629C23.9601 17.5511 23.6423 17.5511 23.4305 17.7629L22.4242 18.6633C22.4242 18.6633 23.2716 16.227 26.0257 14.744C26.8201 14.3203 27.5616 13.6848 28.409 12.8374L29.892 11.3544C30.1568 11.5662 30.4216 11.7781 30.6864 11.99L29.0445 13.6318C28.409 14.2144 27.8264 14.744 27.1379 15.1677L25.6019 16.0681C25.3371 16.227 25.2312 16.5448 25.3901 16.8096C25.602 17.1803 26.0257 17.0744 26.1316 17.0214L27.6675 16.1211C28.462 15.6444 29.1505 15.0618 29.786 14.4262L31.4808 12.7314C31.8516 13.1022 32.1694 13.4729 32.4871 13.8437L27.8264 18.5044C26.6612 19.6696 25.7608 20.9937 25.1782 22.4237C24.5427 23.9066 23.6953 25.3366 22.5831 26.6607C22.3712 26.8725 22.4242 27.1903 22.636 27.4022C22.9008 27.667 23.2716 27.4551 23.3775 27.3492C24.5427 25.9722 25.4431 24.4362 26.1316 22.8474C26.6612 21.5233 27.4557 20.3581 28.5679 19.2459L33.1227 14.6911C33.7582 15.6444 34.2349 16.6507 34.6057 17.71L32.2223 20.1462C31.216 20.9407 30.3157 22.8474 30.3157 22.8474C29.6271 24.0125 28.6208 25.0188 27.4557 25.7074C26.1845 26.5018 24.9664 27.4022 23.9601 28.4085L22.4771 29.8914C22.2653 30.1033 21.9475 30.1033 21.7357 29.8914C21.6297 29.7855 21.4708 29.4677 21.7357 29.15C21.9475 28.9381 21.9475 28.6203 21.7357 28.4085C21.5238 28.1966 21.1531 28.1966 20.9942 28.4085C20.0938 29.4677 20.6764 30.3151 20.9942 30.6329C21.8416 31.4803 22.9008 30.9507 23.2186 30.6329L24.7016 29.15C25.6549 28.1966 26.7671 27.2962 27.9853 26.5548C29.3094 25.7603 30.3686 24.6481 31.1631 23.377C31.1631 23.377 32.0105 21.6292 32.9638 20.8877L34.9234 18.8751C35.1353 19.8814 35.2412 20.9407 35.2412 22C35.2412 28.3025 30.7923 33.5988 24.9134 34.9229C25.1782 34.7111 25.4431 34.5522 25.7079 34.3933C25.9727 34.2344 26.0257 33.9166 25.8668 33.6518C25.7079 33.387 25.3901 33.334 25.1253 33.4929C24.119 34.0225 22.9008 35.2407 22.9008 35.2407C22.5831 35.2407 21.6297 35.2937 21.4708 35.2407L22.2123 34.4992C22.9008 33.8107 23.4834 33.387 24.119 33.0162L25.6549 32.1159C26.5023 31.6392 27.1908 31.0566 27.7734 30.4211C27.7734 30.4211 28.7268 29.4677 28.7797 29.5207C28.7797 29.5207 27.7734 31.2685 27.1379 31.957C26.926 32.1688 26.926 32.4866 27.1379 32.6985C27.3497 32.9103 27.6675 32.9103 27.8794 32.6985C28.6208 31.904 29.2564 31.0566 29.7331 30.0503C29.9449 29.6266 29.839 29.097 29.5742 28.7792C28.9916 28.3025 28.1971 28.5144 27.9323 28.7792L27.0319 29.6796C26.5023 30.2622 25.8668 30.7388 25.1253 31.1625L23.5894 32.0629C22.8479 32.4866 22.2123 33.0162 21.4708 33.7577L20.0938 35.0818C17.7105 34.764 15.539 33.7577 13.7382 32.3277L15.2742 30.7918C16.0686 29.9974 16.7571 29.4677 17.4457 29.097C19.1934 28.0907 20.5705 26.6077 21.4708 24.807C21.6827 24.3833 21.6827 23.8537 21.259 23.4829C21.0471 23.2711 20.1468 23.0062 19.6701 23.4829L18.7697 24.3833C18.2401 24.9659 17.6045 25.4425 16.8631 25.8662L15.3271 26.7666C14.4797 27.2433 13.7912 27.8259 13.2086 28.4614L11.5668 30.1033C11.302 29.7325 11.0371 29.4148 10.8253 29.044L15.3801 24.4892C16.5982 23.2181 17.4457 21.894 18.0282 20.517C18.8227 18.5574 20.0408 16.7566 21.6297 15.1677L22.2123 14.5851C22.5301 14.2674 22.9538 13.1022 22.2123 12.3607C21.5768 11.7251 20.6234 11.7251 19.9879 12.3607L18.5049 13.8437C17.5516 14.797 16.4394 15.6974 15.2212 16.4388C13.8442 17.2862 12.7849 18.3455 12.0434 19.6166C12.0434 19.6166 11.0901 21.6292 10.2957 22.1059L8.97158 23.43C8.81269 23.0062 8.75973 22.5296 8.75973 22C8.75973 21.6822 8.54788 21.4703 8.2301 21.4703C7.91232 21.4703 7.70047 21.6822 7.70047 22C7.70047 29.8914 14.109 36.2999 22.0005 36.2999C29.8919 36.2999 36.3005 29.8914 36.3005 22C36.3005 14.1085 29.8919 7.69995 22.0005 7.69995ZM9.07751 24.807L10.9312 22.9533C12.0434 22.0529 12.8908 20.2522 12.8908 20.2522C13.5794 19.087 14.5327 18.1337 15.7508 17.3922C17.022 16.5977 18.2401 15.6974 19.2464 14.6911L20.7294 13.2081C20.9412 12.9962 21.206 12.9962 21.4708 13.2081C21.7886 13.4729 21.5768 13.8437 21.4708 13.9496L20.8882 14.5322C19.1934 16.227 17.9223 18.1337 17.0749 20.1992C16.5453 21.4703 15.7508 22.6885 14.6386 23.8537L10.2957 28.1966C9.71306 27.0844 9.28936 25.9722 9.07751 24.807ZM12.2553 30.9507L13.9501 29.2559C14.4797 28.6733 15.1153 28.1966 15.8568 27.7729L17.3927 26.8725C18.2401 26.3959 18.9286 25.8133 19.5112 25.1777C19.5112 25.1777 20.4645 24.2774 20.5175 24.2774C20.5175 24.2774 18.452 27.3492 16.916 28.1966C16.1216 28.6203 15.3801 29.2559 14.5327 30.1033L12.9438 31.6922C12.732 31.4274 12.4671 31.2155 12.2553 30.9507Z" fill="white"/>
<path d="M7.86132 18.6612C7.81028 18.8258 7.75924 19.0232 7.70819 19.2207C7.65715 19.3853 7.86132 19.5827 8.11654 19.6156C8.16759 19.6156 8.62698 19.6485 8.72907 19.3523C8.78012 19.1878 8.83116 19.0232 8.8822 18.8587C8.93325 18.6942 8.78012 18.4967 8.5249 18.4638C8.21863 18.3651 7.91237 18.4638 7.86132 18.6612Z" fill="white"/>
</svg>
