<svg width="87" height="87" viewBox="0 0 87 87" fill="none" xmlns="http://www.w3.org/2000/svg">
<path d="M56.6954 86.3343H56.149C37.4867 86.3343 28.4918 78.9787 26.9366 62.502C26.7684 60.7787 28.0294 59.2235 29.7948 59.0554C31.4761 58.8873 33.0733 60.1902 33.2414 61.9136C34.4603 75.1117 40.6811 80.0295 56.191 80.0295H56.7374C73.8446 80.0295 79.8972 73.9768 79.8972 56.8697V29.4646C79.8972 12.3575 73.8446 6.30484 56.7374 6.30484H56.191C40.5971 6.30484 34.3763 11.3067 33.2414 24.757C33.0313 26.4803 31.5601 27.7833 29.7948 27.6152C28.0294 27.4891 26.7684 25.9339 26.8945 24.2106C28.3236 7.48174 37.3606 0 56.149 0H56.6954C77.3332 0 86.16 8.82677 86.16 29.4646V56.8697C86.16 77.5075 77.3332 86.3343 56.6954 86.3343Z" fill="#3D3D3D"/>
<path d="M55.6807 46.3196H7.84822C6.1249 46.3196 4.6958 44.8905 4.6958 43.1672C4.6958 41.4439 6.1249 40.0148 7.84822 40.0148H55.6807C57.4041 40.0148 58.8332 41.4439 58.8332 43.1672C58.8332 44.8905 57.4041 46.3196 55.6807 46.3196Z" fill="#3D3D3D"/>
<path d="M17.2227 60.4008C16.4241 60.4008 15.6255 60.1066 14.995 59.4761L0.914201 45.3953C-0.304734 44.1764 -0.304734 42.1588 0.914201 40.9399L14.995 26.8591C16.2139 25.6401 18.2315 25.6401 19.4504 26.8591C20.6694 28.078 20.6694 30.0955 19.4504 31.3145L7.59733 43.1676L19.4504 55.0207C20.6694 56.2396 20.6694 58.2572 19.4504 59.4761C18.862 60.1066 18.0213 60.4008 17.2227 60.4008Z" fill="#3D3D3D"/>
</svg>
