<svg width="56" height="56" viewBox="0 0 56 56" fill="none" xmlns="http://www.w3.org/2000/svg">
<circle cx="28" cy="28" r="28" fill="url(#paint0_linear_329_2254)"/>
<path d="M40.9344 22.249H33.4353C32.9228 22.249 32.4979 21.8241 32.4979 21.3117C32.4979 20.7992 32.9228 20.3743 33.4353 20.3743H40.9344C41.4468 20.3743 41.8718 20.7992 41.8718 21.3117C41.8718 21.8241 41.4468 22.249 40.9344 22.249Z" fill="white"/>
<path d="M20.9368 22.249H15.9374C15.4249 22.249 15 21.8241 15 21.3117C15 20.7992 15.4249 20.3743 15.9374 20.3743H20.9368C21.4492 20.3743 21.8742 20.7992 21.8742 21.3117C21.8742 21.8241 21.4492 22.249 20.9368 22.249Z" fill="white"/>
<path d="M25.9362 26.6237C23.0115 26.6237 20.6243 24.2365 20.6243 21.3119C20.6243 18.3872 23.0115 16 25.9362 16C28.8608 16 31.2481 18.3872 31.2481 21.3119C31.2481 24.2365 28.8608 26.6237 25.9362 26.6237ZM25.9362 17.8748C24.0364 17.8748 22.4991 19.4121 22.4991 21.3119C22.4991 23.2116 24.0364 24.749 25.9362 24.749C27.836 24.749 29.3733 23.2116 29.3733 21.3119C29.3733 19.4121 27.836 17.8748 25.9362 17.8748Z" fill="white"/>
<path d="M40.9344 35.9973H35.935C35.4226 35.9973 34.9976 35.5724 34.9976 35.0599C34.9976 34.5475 35.4226 34.1226 35.935 34.1226H40.9344C41.4469 34.1226 41.8718 34.5475 41.8718 35.0599C41.8718 35.5724 41.4469 35.9973 40.9344 35.9973Z" fill="white"/>
<path d="M23.4365 35.9973H15.9374C15.4249 35.9973 15 35.5724 15 35.0599C15 34.5475 15.4249 34.1226 15.9374 34.1226H23.4365C23.9489 34.1226 24.3739 34.5475 24.3739 35.0599C24.3739 35.5724 23.9489 35.9973 23.4365 35.9973Z" fill="white"/>
<path d="M30.9356 40.372C28.011 40.372 25.6237 37.9848 25.6237 35.0602C25.6237 32.1355 28.011 29.7483 30.9356 29.7483C33.8603 29.7483 36.2475 32.1355 36.2475 35.0602C36.2475 37.9848 33.8603 40.372 30.9356 40.372ZM30.9356 31.6231C29.0358 31.6231 27.4985 33.1604 27.4985 35.0602C27.4985 36.9599 29.0358 38.4972 30.9356 38.4972C32.8354 38.4972 34.3727 36.9599 34.3727 35.0602C34.3727 33.1604 32.8354 31.6231 30.9356 31.6231Z" fill="white"/>
<defs>
<linearGradient id="paint0_linear_329_2254" x1="0" y1="0" x2="56" y2="56" gradientUnits="userSpaceOnUse">
<stop stop-color="#868CFF"/>
<stop offset="1" stop-color="#4318FF"/>
</linearGradient>
</defs>
</svg>
